<svg height="75" viewBox="0 0 69 75" width="69" xmlns="http://www.w3.org/2000/svg"><g fill="none" fill-rule="evenodd"><g fill="#000" transform="matrix(0 -1 1 0 .290989 74.709011)"><path d="m0 .95474829c0-.47608162.30725146-.76431564.71663158-.76431564.40894737 0 .71619883.28823402.71619883.76431564v6.65480236l3.34211696-3.75178163c.15319298-.1710447.32412865-.25419742.5456959-.25419742.32369591 0 .59632749.23739454.59632749.59413262 0 .18569337-.06837427.32140895-.20469006.47435824l-1.8928421 2.05382901 2.5748538 4.11024303c.08568421.1357156.11900585.2697078.11900585.4243805 0 .3550147-.28907603.6436796-.6811462.6436796-.27349708 0-.49506433-.1361465-.66556725-.4080084l-2.30178948-3.75221251-1.43196491 1.59756618v1.79963163c0 .4743582-.30725146.7630231-.71619883.7630231-.40938012 0-.71663158-.2886649-.71663158-.7630231z"/><path d="m14.8053661 11.1409991c0 .4747891-.306386.7630231-.7153334.7630231-.4102456 0-.7166315-.288234-.7166315-.7630231v-.2391179h-.0177427c-.3912047.6290309-1.1415907 1.1051125-2.2507252 1.1051125-1.77253798 0-2.81286546-1.2059298-2.81286546-3.05553917v-4.58460131c0-.47435824.30725146-.76302311.71619883-.76302311s.71663158.28866487.71663158.76302311v4.24294274c0 1.30717794.57901755 2.07364784 1.80672515 2.07364784 1.1087017 0 1.8417778-.78327278 1.8417778-1.98747922v-4.32911136c0-.47435824.3063859-.76302311.7166315-.76302311.4089474 0 .7153334.28866487.7153334.76302311z"/><path d="m20.0617462 11.9041946c-1.6708421 0-2.2849123-.6966733-2.2849123-2.39376424v-4.56607507c0-.0680732-.0341871-.10340234-.1025614-.10340234h-.4600117c-.3920702 0-.6136374-.23524032-.6136374-.57689889 0-.33864267.2215672-.57732974.6136374-.57732974h.4600117c.0683743 0 .1025614-.03317492.1025614-.09952476v-1.78455207c0-.47478909.3072515-.76302312.7161988-.76302312.4089474 0 .7157661.28823403.7157661.76302312v1.78455207c0 .06634984.0337544.09952476.1025614.09952476h1.0745147c.3920701 0 .6136374.23868707.6136374.57732974 0 .34165857-.2215673.57689889-.6136374.57689889h-1.0745147c-.068807 0-.1025614.03532914-.1025614.10340234v4.51480474c0 .86556377.2224328 1.12148457 1.0913918 1.12148457.444 0 .6993217.271862.6993217.661775 0 .3894821-.2553217.661775-.7668304.661775z"/><path d="m27.7197509 11.5490937-1.9949708-2.81986803h-.0168772l-1.9949707 2.81986803c-.1873802.2537666-.392503.3550147-.6305147.3550147-.3751929 0-.6318128-.3054678-.6318128-.6273075 0-.1706139.0519298-.3231324.1709357-.4937462l2.2849122-3.20848851-2.0291579-2.86769161c-.1025614-.15424182-.1700701-.30676028-.1700701-.47608161 0-.33821183.2557543-.6268767.6309473-.6268767.2380117 0 .4604445.10124813.6305146.33821183l1.7392164 2.49501233h.0168772l1.7565263-2.49501233c.1700702-.2369637.392503-.33821183.6305147-.33821183.3583157 0 .6140701.28866487.6140701.6268767 0 .16932133-.0683742.32183979-.1705029.47608161l-2.0287251 2.86769161 2.2840467 3.20848851c.1203041.1706138.1709357.3231323.1709357.4937462 0 .3218397-.2721988.6273075-.6305146.6273075-.2393099 0-.4604445-.1012481-.6313801-.3550147"/><path d="m35.9432713 9.18703953v-.89916952c0-.065919-.0341871-.10081729-.1025614-.10081729h-1.6370877c-1.3982105 0-2.0287251.40628504-2.0287251 1.32354997 0 .84919171.6136374 1.27227961 1.7050292 1.27227961 1.2618948 0 2.063345-.5941326 2.063345-1.59584277m1.9434737 2.03831867c0 .3903438-.3063859.6790087-.733076.6790087-.2557544 0-.4608772-.1197744-.6305146-.3554455l-.3241287-.5105491h-.0173099c-.5456959.6100738-1.3129591.9685353-2.5069123.9685353-1.8240351 0-2.8812398-.9008929-2.8812398-2.44503458 0-1.68158058 1.1593334-2.51310774 3.188924-2.51310774h1.8582222c.0683743 0 .1025614-.03446745.1025614-.10081728v-.39120553c0-1.13828744-.5288187-1.78153617-1.9607836-1.78153617-.6305146 0-1.2787719.20206541-1.6712748.40757756-.1363158.06634984-.2899416.11805101-.4089474.11805101-.3756257 0-.6140702-.2369637-.6140702-.61222803 0-.21886829.1025614-.44118333.3410059-.5768989.5115087-.33864267 1.3644561-.61050466 2.4896023-.61050466 2.1827836 0 3.2053684 1.0348851 3.2053684 3.03830547v2.91982362c0 .42438044.0341872.59370173.1536258.83238883l.2899415.5256286c.0679415.1197744.1190058.2722928.1190058.4080084"/><path d="m45.2923708 9.40918223c.1531929-.44075248.1873801-.95173238.1873801-1.66520854 0-.69538075-.0341872-1.20420644-.1873801-1.64538976-.2730644-.81429344-.886269-1.27400301-1.7902807-1.27400301-.9213217 0-1.5353919.45970957-1.8075907 1.27400301-.1536257.44118332-.1873801.95000901-.1873801 1.64538976 0 .71347616.0337544 1.22445606.1873801 1.66520854.2721988.81472427.886269 1.27400297 1.8075907 1.27400297.9040117 0 1.5172163-.4592787 1.7902807-1.27400297m-5.2180819 1.73198927v-10.18642321c0-.47608162.3072515-.76431564.7161988-.76431564.4089474 0 .7166316.28823402.7166316.76431564v3.63286893h.0164444c.3760585-.62860007 1.0913919-1.08658628 2.3190995-1.08658628 1.3813333 0 2.3874736.76302312 2.8132982 2.03702613.2046901.64540295.2899415 1.29037505.2899415 2.20591662 0 .93579119-.0852514 1.57903992-.2899415 2.22616624-.4258246 1.27227967-1.4319649 2.03659527-2.8132982 2.03659527-1.2103977 0-1.9265965-.4411833-2.3190995-1.0878788h-.0164444v.2223151c0 .4743582-.3076842.7630231-.7166316.7630231-.4089473 0-.7161988-.2886649-.7161988-.7630231"/><path d="m53.9931696 9.18703953v-.89916952c0-.065919-.0341871-.10081729-.1025614-.10081729h-1.6370877c-1.3982106 0-2.0291579.40628504-2.0291579 1.32354997 0 .84919171.6140701 1.27227961 1.705462 1.27227961 1.2618947 0 2.063345-.5941326 2.063345-1.59584277m1.9434737 2.03831867c0 .3903438-.306386.6790087-.733076.6790087-.2557544 0-.4608772-.1197744-.6305147-.3554455l-.3241286-.5105491h-.01731c-.5456959.6100738-1.312959.9685353-2.5069122.9685353-1.8240351 0-2.8812398-.9008929-2.8812398-2.44503458 0-1.68158058 1.1593333-2.51310774 3.188924-2.51310774h1.8582222c.0683743 0 .1025614-.03446745.1025614-.10081728v-.39120553c0-1.13828744-.5288187-1.78153617-1.9607836-1.78153617-.6305147 0-1.278772.20206541-1.6712749.40757756-.1367485.06634984-.2899415.11805101-.4089474.11805101-.3756257 0-.6140701-.2369637-.6140701-.61222803 0-.21886829.1025614-.44118333.3410058-.5768989.5115088-.33864267 1.3644562-.61050466 2.4896024-.61050466 2.1827836 0 3.2053684 1.0348851 3.2053684 3.03830547v2.91982362c0 .42438044.0341871.59370173.1536257.83238883l.2899415.5256286c.0683743.1197744.1190059.2722928.1190059.4080084"/><path d="m58.1233216 4.36698247c0-.47478908.3072515-.76302311.7161989-.76302311.4093801 0 .7166315.28823403.7166315.76302311v.23868707h.0168772c.3920702-.63032344 1.1766433-1.10468168 2.2849123-1.10468168 1.7734035 0 2.8306082 1.20592981 2.8306082 3.05553919v4.58460135c0 .4743582-.3076842.7630231-.7166316.7630231-.4089473 0-.7153333-.2886649-.7153333-.7630231v-4.24466615c0-1.30717793-.5976257-2.07192442-1.8253333-2.07192442-1.1078363 0-1.8750995.78154937-1.8750995 1.98747917v4.3291114c0 .4743582-.3072514.7630231-.7166315.7630231-.4089474 0-.7161989-.2886649-.7161989-.7630231z"/><path d="m67.4041766.95474829c0-.47608162.3072515-.76431564.7161988-.76431564.4093802 0 .7166316.28823402.7166316.76431564v6.65480236l3.3416842-3.75178163c.1536258-.1710447.3241287-.25419742.5452632-.25419742.3245614 0 .5963275.23739454.5963275.59413262 0 .18569337-.0666433.32140895-.2033918.47435824l-1.8932749 2.05382901 2.5744211 4.11024303c.0852514.1357156.1203041.2697078.1203041.4243805 0 .3550147-.2899416.6436796-.6811462.6436796-.2734971 0-.4967954-.1361465-.6668655-.4080084l-2.3013568-3.75221251-1.4319649 1.59756618v1.79963163c0 .4743582-.3072514.7630231-.7166316.7630231-.4089473 0-.7161988-.2886649-.7161988-.7630231z"/></g><g transform="translate(21 1)"><path d="m5.58391273 7.80811507c0 1.45094064 1.18889697 2.62514153 2.62487272 2.62514153 1.46991516 0 2.66186665-1.17420089 2.66186665-2.62514153 0-1.45127854-1.19195149-2.593379-2.66186665-2.593379-1.43597575 0-2.62487272 1.14210046-2.62487272 2.593379m30.67204847 18.72943383c0 1.4512785 1.196703 2.6251415 2.6669576 2.6251415 1.4332606 0 2.6221576-1.173863 2.6221576-2.6251415 0-1.4188402-1.188897-2.593379-2.6221576-2.593379-1.4702546 0-2.6669576 1.1745388-2.6669576 2.593379m-30.56751514 39.5994611c0 1.4178265 1.18923636 2.5913516 2.66152727 2.5913516 1.43495758 0 2.62656967-1.1735251 2.62656967-2.5913516 0-1.4519543-1.19161209-2.6248036-2.62656967-2.6248036-1.47229091 0-2.66152727 1.1728493-2.66152727 2.6248036m30.95713944-.0675799c0 1.4506028 1.1885575 2.6251416 2.6262303 2.6251416 1.4712727 0 2.6628848-1.1745388 2.6628848-2.6251416 0-1.4178264-1.1916121-2.5927032-2.6628848-2.5927032-1.4376728 0-2.6262303 1.1748768-2.6262303 2.5927032m-36.35112732-.5879452v-57.15773513c0-5.00631963 3.36203637-8.32347945 8.01886061-8.32347945 4.51869091 0 7.88072731 3.31715982 7.88072731 8.32347945v30.71979913l16.5288242-16.6520274c2.0302545-1.971306 4.411103-3.0765754 6.7933091-2.8697809 3.8884364.3460092 6.9002182 3.491516 6.5499636 7.5686119-.177503 1.9344749-.9811878 3.5607854-2.3099151 4.8731872l-9.7725091 9.5348493 11.8027636 20.1117809c.9774546 1.6935525 1.3979637 3.2830319 1.3979637 4.7691141 0 4.0429681-3.1146182 7.4290594-7.5284364 7.4290594-3.115297 0-5.8121212-1.5898174-7.5304727-4.5609681l-9.4531394-16.7581278-6.4783515 6.3210867v6.6711507c0 5.0448402-3.3620364 8.3268585-7.88072731 8.3268585-4.65682424 0-8.01886061-3.2820183-8.01886061-8.3268585" fill="#000"/><path d="m36.0481842 66.1884384c0 1.7273424 1.4047516 3.1441552 3.1539879 3.1441552 1.7509334 0 3.1858909-1.4168128 3.1858909-3.1441552 0-1.729032-1.4349575-3.1103653-3.1858909-3.1103653-1.7492363 0-3.1539879 1.3813333-3.1539879 3.1103653" fill="#ed2f24"/></g></g></svg>