<?xml version="1.0" encoding="UTF-8"?><svg id="Capa_2" xmlns="http://www.w3.org/2000/svg" viewBox="0 0 299.43 254.69"><defs><style>.cls-1,.cls-2{stroke-width:0px;}.cls-2{fill:#e30613;}</style></defs><g id="Logotipo"><path class="cls-1" d="M207.55,147.97l-30.4-54.35c-.05-.1-.04-.22.04-.29l23.51-23.51c8.01-8.01,8.01-20.99,0-29-8.01-8.01-20.99-8.01-29,0l-40.93,40.93c-.15.15-.42.05-.42-.17l-.06-61.07c0-11.33-9.18-20.51-20.51-20.51s-20.51,9.18-20.51,20.51l.06,137.48c0,11.33,9.18,20.51,20.51,20.51s20.51-9.18,20.51-20.51v-17.61c0-.13.05-.25.14-.35l16.2-16.2c.11-.11.31-.09.39.05l24.68,44.11c5.53,9.88,18.02,13.42,27.91,7.89,9.88-5.53,13.42-18.02,7.89-27.91ZM186.16,47.07c4.57-.01,8.27,3.63,8.29,8.17.02,4.53-3.68,8.26-8.21,8.27-4.52,0-8.21-3.67-8.26-8.24-.05-4.43,3.7-8.18,8.17-8.2ZM109.86,166.24c-4.52,0-8.21-3.67-8.26-8.24-.05-4.43,3.7-8.18,8.17-8.2,4.57-.01,8.27,3.63,8.29,8.17.02,4.53-3.68,8.26-8.21,8.27ZM109.8,28.42c-4.52,0-8.21-3.67-8.26-8.24-.05-4.43,3.7-8.18,8.17-8.2,4.57-.01,8.27,3.63,8.29,8.17.02,4.53-3.68,8.26-8.21,8.27Z"/><path class="cls-2" d="M197.91,157.97c.02,4.53-3.68,8.26-8.21,8.27-4.52,0-8.21-3.67-8.26-8.24-.05-4.43,3.7-8.18,8.17-8.2,4.57-.01,8.27,3.63,8.29,8.17Z"/><polygon class="cls-1" points="28.95 222.76 29.12 222.57 21.13 222.57 6.87 237.8 6.87 210.99 0 210.99 0 254.32 6.87 254.32 6.87 246.19 12.35 240.41 21.64 254.28 21.67 254.32 29.81 254.32 17.24 235.38 28.95 222.76"/><path class="cls-1" d="M55.84,238.33c0,3.2-.72,5.76-2.13,7.6-1.41,1.83-3.39,2.76-5.89,2.76s-4.19-.79-5.4-2.36c-1.21-1.57-1.83-3.91-1.83-6.95v-16.8h-6.87v17.48c0,5.1,1.17,8.85,3.48,11.16,2.31,2.31,5.36,3.48,9.07,3.48,4.04,0,7.29-1.42,9.67-4.23v3.86h6.76v-31.75h-6.87v15.75Z"/><path class="cls-1" d="M80.51,247.52c-.47-.49-.71-1.35-.71-2.54v-16.34h7.58v-6.07h-7.58v-8.81h-6.93v8.81h-5.48v6.07h5.48v17.01c0,2.93.7,5.13,2.09,6.54,1.39,1.41,3.62,2.13,6.64,2.13h6.51v-6.07h-5.16c-1.16,0-1.98-.25-2.45-.74Z"/><polygon class="cls-1" points="123.21 222.57 115.67 222.57 108.03 233.15 100.54 222.62 100.51 222.57 92.48 222.57 103.71 238.08 91.93 254.15 91.8 254.32 99.28 254.32 107.6 242.94 115.82 254.28 115.86 254.32 123.89 254.32 111.92 238.08 123.21 222.57"/><path class="cls-1" d="M150.78,225.19c-2.31-1.98-5.63-2.98-9.86-2.98-3.99,0-7.26.89-9.73,2.64-2.48,1.76-3.9,4.26-4.23,7.44v.12s6.73,0,6.73,0l.02-.09c.24-1.4.98-2.51,2.2-3.32,1.23-.81,2.81-1.21,4.71-1.21,2.14,0,3.84.5,5.04,1.48,1.2.98,1.81,2.35,1.81,4.07v1.8h-7.78c-4.4,0-7.81.89-10.14,2.64-2.34,1.76-3.52,4.31-3.52,7.57,0,2.9,1.07,5.2,3.18,6.86,2.1,1.65,4.94,2.49,8.44,2.49,2.35,0,4.36-.44,5.99-1.27,2.05-1.05,4.09-2.67,4.09-2.67v3.58h6.53v-20.62c0-3.67-1.17-6.54-3.49-8.52ZM147.46,241.28c-.04,2.42-.83,4.39-2.34,5.84-1.51,1.45-3.65,2.19-6.36,2.19-1.77,0-3.19-.41-4.21-1.21-1.01-.8-1.53-1.87-1.53-3.18,0-1.52.54-2.68,1.62-3.45,1.08-.78,2.66-1.18,4.68-1.18h8.14v1Z"/><path class="cls-1" d="M250.15,222.2c-4.28,0-7.65,1.46-10.04,4.35v-3.98h-6.7v31.75h6.87v-16c0-3.16.75-5.68,2.22-7.48,1.47-1.79,3.52-2.7,6.11-2.7,2.42,0,4.27.77,5.52,2.3,1.25,1.53,1.88,3.81,1.88,6.77v17.11h6.93v-17.48c0-5.1-1.2-8.85-3.57-11.16-2.37-2.31-5.48-3.48-9.22-3.48Z"/><polygon class="cls-1" points="286.87 235.38 298.57 222.76 298.74 222.57 290.75 222.57 276.49 237.8 276.49 210.99 269.62 210.99 269.62 254.32 276.49 254.32 276.49 246.19 281.97 240.41 291.26 254.28 291.29 254.32 299.43 254.32 286.87 235.38"/><path class="cls-1" d="M223.09,225.19c-2.31-1.98-5.63-2.98-9.86-2.98-3.99,0-7.26.89-9.73,2.64-2.48,1.76-3.9,4.26-4.23,7.44v.12s6.73,0,6.73,0l.02-.09c.24-1.4.98-2.51,2.2-3.32,1.23-.81,2.81-1.21,4.71-1.21,2.14,0,3.84.5,5.04,1.48,1.2.98,1.81,2.35,1.81,4.07v1.8h-7.77c-4.4,0-7.81.89-10.14,2.64-2.34,1.76-3.52,4.31-3.52,7.57,0,2.9,1.07,5.2,3.18,6.86,2.1,1.65,4.94,2.49,8.44,2.49,2.35,0,4.36-.44,5.99-1.27,2.05-1.05,4.09-2.67,4.09-2.67v3.58h6.53v-20.62c0-3.67-1.17-6.54-3.49-8.52ZM219.77,241.28c-.04,2.42-.83,4.39-2.34,5.84-1.51,1.45-3.65,2.19-6.36,2.19-1.77,0-3.19-.41-4.21-1.21-1.01-.8-1.53-1.87-1.53-3.18,0-1.52.54-2.68,1.62-3.45,1.08-.78,2.66-1.18,4.68-1.18h8.14v1Z"/><path class="cls-1" d="M186.42,224.16c-2.26-1.3-4.87-1.95-7.75-1.95-4.22,0-7.62,1.63-10.12,4.84v-16.05h-6.87v43.33h6.87v-4.26c1.04,1.37,2.37,2.48,3.97,3.3,1.73.89,3.8,1.34,6.15,1.34,2.88,0,5.49-.69,7.75-2.05,2.27-1.36,4.06-3.29,5.34-5.74,1.27-2.45,1.92-5.29,1.92-8.46,0-3.33-.65-6.24-1.92-8.67-1.28-2.43-3.07-4.32-5.34-5.62ZM184.16,245.98c-1.67,1.92-3.9,2.89-6.6,2.89s-4.92-.98-6.57-2.92c-1.66-1.94-2.5-4.49-2.5-7.57s.84-5.54,2.5-7.44c1.65-1.9,3.86-2.86,6.57-2.86s4.93.97,6.6,2.89c1.68,1.92,2.53,4.44,2.53,7.47s-.85,5.61-2.53,7.53Z"/></g></svg>