<?xml version="1.0" encoding="UTF-8"?>
<svg id="Capa_1" xmlns="http://www.w3.org/2000/svg" viewBox="0 0 20 16">
  <defs>
    <style>
      .cls-1 {
        fill: #fff;
      }
    </style>
  </defs>
  <path class="cls-1" d="M2.5,4c-1.38,0-2.5,1.12-2.5,2.5v7c0,1.38,1.12,2.5,2.5,2.5h15c1.38,0,2.5-1.12,2.5-2.5v-7c0-1.38-1.12-2.5-2.5-2.5H2.5ZM8.08,7.01c.06,0,.11.03.16.06l4.5,2.5c.24.13.33.44.2.68-.05.08-.11.15-.2.2l-4.5,2.5c-.24.13-.55.05-.68-.2-.04-.07-.06-.16-.06-.24v-5c0-.28.22-.5.5-.5.03,0,.05,0,.08,0Z"/>
  <path class="cls-1" d="M3.5,2c-.28,0-.5.22-.5.5s.22.5.5.5h13c.28,0,.5-.22.5-.5s-.22-.5-.5-.5H3.5Z"/>
  <path class="cls-1" d="M5.5,0c-.28,0-.5.22-.5.5s.22.5.5.5h9c.28,0,.5-.22.5-.5s-.22-.5-.5-.5H5.5Z"/>
</svg>